# Blender v2.77 (sub 0) OBJ File: 'obelisk.blend'
# www.blender.org
mtllib obelisk.mtl
o Cube
v -1.000000 2.350069 -0.994081
v -0.783400 2.350069 -1.210681
v -0.783401 2.350069 0.789319
v -1.000000 2.350069 0.572719
v 0.999999 2.350069 0.572720
v 0.783400 2.350069 0.789320
v 0.783401 2.350069 -1.210680
v 1.000000 2.350069 -0.994081
v 0.897341 -1.000000 -1.145443
v 1.145443 -1.000000 -0.897341
v 1.145443 -1.000000 0.897341
v 0.897341 -1.000000 1.145443
v -0.897341 -1.000000 1.145443
v -1.145444 -1.000000 0.897340
v -1.145443 -1.000000 -0.897341
v -0.897340 -1.000000 -1.145444
v 1.000000 1.000000 -0.783400
v 0.783401 1.000000 -1.000000
v 0.783400 1.000000 1.000000
v 0.999999 1.000000 0.783401
v -1.000000 1.000000 0.783400
v -0.783401 1.000000 1.000000
v -0.783400 1.000000 -1.000000
v -1.000000 1.000000 -0.783400
v -0.960166 3.932905 -0.829557
v -0.752195 3.932905 -1.037529
v -0.752195 3.932905 0.882803
v -0.960167 3.932905 0.674831
v 0.960166 3.932905 0.674832
v 0.752194 3.932905 0.882804
v 0.752195 3.932905 -1.037529
v 0.960166 3.932905 -0.829557
v -0.900849 5.553359 -0.845922
v -0.705725 5.553359 -1.041045
v -0.705726 5.553359 0.760652
v -0.900849 5.553359 0.565528
v 0.900848 5.553359 0.565529
v 0.705724 5.553359 0.760652
v 0.705725 5.553359 -1.041045
v 0.900849 5.553359 -0.845921
vn 0.0000 0.0725 -0.9974
vn -0.7068 -0.0278 0.7068
vn -0.0000 0.0725 0.9974
vn -0.9974 0.0725 -0.0000
vn 0.7028 0.1097 0.7028
vn 0.9974 0.0725 0.0000
vn 0.7042 0.0913 -0.7042
vn 0.7042 0.0913 0.7042
vn -0.7042 0.0913 0.7042
vn -0.7042 0.0913 -0.7042
vn 0.0000 -1.0000 0.0000
vn 0.7028 -0.1097 -0.7028
vn -0.0000 0.1542 0.9880
vn 0.0000 -0.1542 -0.9880
vn -0.7028 -0.1097 -0.7028
vn -1.0000 -0.0000 -0.0000
vn 1.0000 0.0000 0.0000
vn -0.7028 0.1097 0.7028
vn 0.7052 0.0734 0.7052
vn 0.0000 0.1087 -0.9941
vn -0.0000 -0.0590 0.9983
vn 0.7068 -0.0278 0.7068
vn -0.7042 0.0909 -0.7042
vn 0.9997 0.0252 0.0000
vn -0.9997 0.0252 -0.0000
vn 0.7042 0.0909 -0.7042
vn 0.0000 1.0000 -0.0000
vn -0.7070 0.0187 -0.7070
vn 0.9993 0.0366 0.0000
vn -0.9993 0.0366 -0.0000
vn 0.7070 0.0187 -0.7070
vn -0.7052 0.0734 0.7052
vn 0.0000 -0.0022 -1.0000
vn -0.0000 0.0752 0.9972
usemtl Material
s off
f 18//1 9//1 16//1 23//1
f 4//2 3//2 27//2 28//2
f 12//3 19//3 22//3 13//3
f 14//4 21//4 24//4 15//4
f 19//5 20//5 5//5 6//5
f 10//6 17//6 20//6 11//6
f 9//7 18//7 17//7 10//7
f 11//8 20//8 19//8 12//8
f 13//9 22//9 21//9 14//9
f 15//10 24//10 23//10 16//10
f 9//11 10//11 11//11 12//11 13//11 14//11 15//11 16//11
f 17//12 18//12 7//12 8//12
f 22//13 19//13 6//13 3//13
f 18//14 23//14 2//14 7//14
f 23//15 24//15 1//15 2//15
f 24//16 21//16 4//16 1//16
f 20//17 17//17 8//17 5//17
f 21//18 22//18 3//18 4//18
f 30//19 29//19 37//19 38//19
f 7//20 2//20 26//20 31//20
f 3//21 6//21 30//21 27//21
f 6//22 5//22 29//22 30//22
f 2//23 1//23 25//23 26//23
f 5//24 8//24 32//24 29//24
f 1//25 4//25 28//25 25//25
f 8//26 7//26 31//26 32//26
f 40//27 39//27 34//27 33//27 36//27 35//27 38//27 37//27
f 26//28 25//28 33//28 34//28
f 29//29 32//29 40//29 37//29
f 25//30 28//30 36//30 33//30
f 32//31 31//31 39//31 40//31
f 28//32 27//32 35//32 36//32
f 31//33 26//33 34//33 39//33
f 27//34 30//34 38//34 35//34
