# Blender v2.77 (sub 0) OBJ File: 'water.blend'
# www.blender.org
mtllib water.mtl
o Sphere
v -0.966032 0.274693 -0.000000
v -0.888916 -0.468323 -0.077428
v -0.637686 -0.777774 0.062802
v -0.387183 0.923959 -0.009634
v -0.772367 0.644827 -0.045730
v -0.923172 0.318409 -0.244435
v -0.997111 -0.107600 -0.106601
v -0.384182 -0.926968 0.073981
v -0.796703 0.558704 -0.244364
v -0.716944 -0.659624 -0.254382
v -0.510532 -0.834053 -0.226530
v -0.295495 0.924083 -0.256773
v -0.552895 0.783440 -0.317039
v -0.883628 0.091053 -0.481044
v -0.852298 -0.300884 -0.446714
v -0.118531 -0.999440 -0.006902
v -0.691491 0.481421 -0.555157
v -0.564251 -0.651768 -0.524668
v -0.347452 0.782993 -0.530992
v -0.493922 0.473965 -0.735470
v -0.629684 0.107597 -0.780443
v -0.621111 -0.189014 -0.767420
v -0.562521 -0.462149 -0.698474
v -0.306641 -0.902443 -0.330256
v -0.292165 0.099054 -0.961172
v -0.095487 0.786914 -0.624147
v -0.268659 0.468327 -0.850883
v -0.278658 -0.293139 -0.924523
v -0.222165 -0.638968 -0.746745
v -0.066088 0.923958 -0.381623
v 0.097899 0.099052 -0.999814
v -0.095288 -0.834057 -0.550320
v 0.000000 -0.984947 -0.202591
v 0.077432 0.481434 -0.883390
v 0.113690 -0.196724 -0.978120
v 0.084305 -0.475431 -0.885356
v 0.080564 -0.896710 -0.456158
v 0.177665 0.781006 -0.608656
v 0.337073 0.473946 -0.819285
v 0.382334 0.098549 -0.923916
v 0.419852 -0.318422 -0.857743
v 0.121149 -0.712799 -0.699627
v 0.497450 0.638985 -0.599619
v 0.420811 -0.642401 -0.653789
v 0.194192 0.924084 -0.339911
v 0.604395 0.300896 -0.748774
v 0.644189 -0.091043 -0.772800
v 0.663079 -0.484917 -0.583542
v 0.398499 0.836746 -0.386576
v 0.431320 -0.840778 -0.346470
v 0.361398 0.923958 -0.139268
v 0.689114 0.643661 -0.356520
v 0.843520 0.292913 -0.469841
v 0.893624 -0.098971 -0.458703
v 0.792921 -0.465397 -0.416142
v 0.269764 -0.928496 -0.274290
v 0.959111 0.292922 -0.111278
v 0.649029 -0.712795 -0.287910
v 0.630562 -0.785915 0.019619
v 0.546688 0.833788 -0.108749
v 0.777012 0.638668 -0.059187
v 1.001139 -0.098973 -0.081813
v 0.884792 -0.475437 -0.090036
v 0.928687 0.292916 0.264228
v 0.291096 -0.964557 0.020918
v 0.521156 0.834049 0.200830
v 0.740516 0.638674 0.242667
v 0.956240 -0.098969 0.307535
v 0.851896 -0.475433 0.255418
v 0.371264 0.924084 0.124147
v 0.737760 0.473949 0.490460
v 0.762070 0.197136 0.624117
v 0.737777 -0.473986 0.490450
v 0.543035 -0.788275 0.318722
v 0.504711 0.713917 0.498301
v 0.765763 -0.098970 0.650060
v 0.491047 -0.638966 0.604902
v 0.238570 0.923902 0.301321
v 0.566428 0.475433 0.685668
v 0.494165 0.078943 0.873195
v 0.597006 -0.306810 0.754223
v 0.153925 0.626638 0.779022
v 0.147229 -0.718494 0.689732
v 0.277132 0.838083 0.485046
v 0.284550 0.385208 0.882075
v 0.257123 0.126589 0.965299
v 0.278660 -0.293136 0.924520
v -0.001098 0.291881 0.961414
v -0.001098 -0.291879 0.961413
v 0.142627 -0.564095 0.823627
v 0.166175 -0.840776 0.527714
v 0.027380 0.924083 0.390512
v -0.080898 0.000000 1.001062
v -0.281936 -0.293139 0.923525
v 0.135612 -0.938438 0.350950
v -0.133902 0.713909 0.696518
v -0.248300 0.481428 0.851313
v -0.302328 0.196709 0.937143
v -0.242683 -0.638681 0.740522
v -0.192411 -0.892019 0.431154
v -0.288817 0.924326 0.272056
v -0.147030 0.838095 0.538910
v -0.467451 -0.008325 0.890066
v -0.604389 -0.300867 0.748782
v -0.542269 0.491501 0.693965
v -0.676347 0.299355 0.688161
v -0.779964 0.110735 0.628921
v -0.505048 -0.633194 0.598280
v -0.465702 -0.832077 0.315742
v -0.427059 0.786169 0.467125
v -0.873195 -0.078939 0.494160
v -0.809608 -0.385220 0.451165
v -0.656923 -0.656282 0.386321
v -0.013314 -0.986421 0.198921
v -0.969780 0.115629 0.249256
v -0.552567 0.832073 0.106065
v -0.647751 0.718498 0.278988
v -0.770065 0.571800 0.308320
v -0.882854 0.391911 0.275779
v -0.942894 -0.204565 0.275994
v -0.846185 -0.497107 0.222250
v -0.386998 1.790316 0.087886
v -0.309070 1.791594 -0.240343
v 0.080359 1.725863 -0.178566
v -0.011854 1.791028 -0.396690
v 0.295526 1.791157 -0.256801
v 0.387200 1.791224 -0.009634
v 0.183212 1.729247 0.082184
v 0.309521 1.791158 0.239749
v -0.080355 1.725864 0.178562
v 0.084988 1.791224 0.377880
v -0.174757 1.791157 0.350346
v -0.086596 1.705817 -0.040150
vn -0.6091 0.7880 -0.0901
vn -0.7756 -0.0879 -0.6250
vn -0.5047 -0.8616 -0.0542
vn -0.9811 0.1217 -0.1503
vn -0.4432 0.8813 -0.1640
vn -0.6958 0.6862 -0.2123
vn -0.2936 -0.9491 -0.1139
vn -0.8320 0.3240 -0.4504
vn -0.5774 -0.7388 -0.3477
vn -0.7133 -0.4700 -0.5199
vn -0.5274 0.6459 -0.5520
vn -0.7161 -0.3113 -0.6248
vn -0.6319 0.3208 -0.7056
vn -0.3282 -0.7668 -0.5516
vn -0.4422 0.2759 -0.8535
vn -0.4540 -0.0786 -0.8875
vn -0.2055 0.8749 -0.4386
vn -0.0972 0.2878 -0.9528
vn -0.1019 -0.9290 -0.3557
vn -0.2719 0.6517 -0.7080
vn -0.0252 -0.6185 -0.7854
vn -0.0629 -0.7281 -0.6825
vn -0.1059 -0.0885 -0.9904
vn 0.0613 0.8730 -0.4838
vn -0.0534 -0.3103 -0.9491
vn -0.1425 -0.4708 -0.8706
vn 0.2424 0.2910 -0.9255
vn 0.0566 0.6645 -0.7452
vn 0.2536 -0.5714 -0.7805
vn 0.2962 -0.0950 -0.9504
vn 0.1210 -0.9488 -0.2917
vn 0.2827 -0.7952 -0.5365
vn 0.4409 -0.1019 -0.8918
vn 0.3536 0.7617 -0.5428
vn 0.3047 0.6413 -0.7042
vn 0.7610 -0.2627 -0.5931
vn 0.4995 0.4770 -0.7231
vn 0.2726 -0.8589 -0.4337
vn 0.4154 0.2904 -0.8621
vn 0.5539 0.1069 -0.8257
vn 0.5089 -0.4575 -0.7292
vn 0.6815 0.4717 -0.5594
vn 0.3255 0.9060 -0.2707
vn 0.5378 -0.6998 -0.4701
vn 0.7693 0.0986 -0.6312
vn 0.9220 -0.2817 -0.2655
vn 0.0863 -0.9960 -0.0215
vn 0.5507 0.7844 -0.2854
vn 0.6585 -0.6108 -0.4396
vn 0.8444 0.4693 -0.2584
vn 0.7810 -0.5775 -0.2378
vn 0.4513 -0.8835 -0.1254
vn 0.9524 0.0970 -0.2889
vn 0.6467 0.7600 0.0653
vn 0.4398 0.8980 -0.0169
vn 0.8798 0.4673 0.0869
vn 0.7843 -0.6158 0.0747
vn 0.9905 0.0970 0.0975
vn 0.9525 -0.2873 0.1008
vn 0.8833 0.0865 0.4608
vn 0.4622 -0.8774 0.1283
vn 0.7019 -0.6233 0.3447
vn 0.8499 -0.2761 0.4489
vn -0.4710 0.0117 -0.8821
vn 0.3860 0.8696 0.3079
vn 0.0835 -0.9963 0.0204
vn 0.4139 0.0388 -0.9095
vn 0.4625 0.0036 0.8866
vn 0.4310 0.8282 0.3583
vn 0.7030 0.3583 0.6143
vn 0.3440 -0.8458 0.4078
vn 0.6614 0.0736 0.7464
vn 0.3928 -0.4824 0.7830
vn 0.5981 -0.0863 0.7968
vn -0.1054 0.0215 0.9942
vn 0.1650 0.9064 0.3888
vn 0.4484 0.2823 0.8481
vn 0.3201 -0.6152 0.7204
vn 0.3837 0.6299 0.6753
vn 0.3176 -0.7386 0.5946
vn 0.3665 0.5259 0.7675
vn 0.1348 -0.0923 0.9866
vn 0.3484 -0.0729 0.9345
vn 0.0727 0.7919 0.6063
vn 0.1182 -0.3981 0.9097
vn -0.0676 -0.7851 0.6157
vn 0.1687 0.2857 0.9434
vn 0.0607 0.1181 0.9912
vn -0.1031 -0.4823 0.8699
vn -0.0054 -0.8749 0.4843
vn -0.1320 0.1688 0.9768
vn -0.4529 0.3184 0.8328
vn 0.9373 0.0241 -0.3477
vn -0.1380 0.9187 0.3702
vn -0.0487 -0.9378 0.3437
vn -0.2741 -0.0658 0.9595
vn -0.4196 -0.4683 0.7775
vn -0.5010 0.2107 0.8394
vn -0.3554 0.6447 0.6768
vn -0.9591 0.0112 -0.2827
vn -0.3235 -0.7572 0.5675
vn -0.6668 -0.4815 0.5688
vn -0.6532 -0.0588 0.7549
vn -0.2243 -0.9508 0.2135
vn 0.9544 0.0283 0.2973
vn -0.7768 0.0455 0.6281
vn -0.7652 -0.2426 0.5964
vn -0.6137 0.6165 0.4932
vn -0.8493 0.2637 0.4574
vn -0.5109 -0.7348 0.4461
vn -0.7086 0.4788 0.5183
vn -0.4884 0.8281 0.2751
vn -0.8696 0.4865 0.0839
vn -0.8874 0.1199 0.4452
vn -0.8759 -0.2406 0.4183
vn -0.9423 -0.0515 0.3307
vn -0.4043 0.9039 0.1400
vn -0.6043 -0.7571 0.2484
vn -0.5058 -0.8473 0.1620
vn -0.7869 -0.6148 0.0532
vn -0.7467 0.6504 0.1390
vn -0.9503 -0.3011 0.0795
vn -0.9452 0.2815 0.1654
vn 0.1215 0.9593 0.2547
vn -0.2553 0.9626 0.0912
vn -0.0981 0.9948 0.0258
vn -0.1231 0.9623 -0.2426
vn -0.0456 0.9949 -0.0899
vn 0.2317 0.9681 -0.0953
vn -0.7646 -0.6427 -0.0483
vn -0.6300 -0.7660 -0.1279
vn -0.5340 0.8400 -0.0961
vn -0.9278 -0.2966 -0.2265
vn -0.8302 -0.4721 -0.2964
vn -0.3730 -0.9190 -0.1273
vn -0.9653 0.0880 -0.2459
vn -0.9351 -0.1044 -0.3388
vn -0.7413 -0.5122 -0.4337
vn -0.6849 0.6183 -0.3856
vn -0.8172 0.4302 -0.3836
vn -0.3789 0.8501 -0.3656
vn -0.4674 -0.7892 -0.3983
vn -0.7453 0.2494 -0.6183
vn -0.1837 -0.9658 -0.1828
vn -0.3595 -0.4724 -0.8047
vn -0.4139 -0.6130 -0.6729
vn -0.3431 0.6260 -0.7003
vn -0.4727 -0.3097 -0.8251
vn -0.1144 -0.9122 -0.3934
vn -0.0969 0.6115 -0.7853
vn 0.0354 -0.8003 -0.5986
vn 0.2043 0.6236 -0.7545
vn 0.2294 -0.3291 -0.9160
vn 0.3036 -0.5070 -0.8067
vn 0.2554 0.8468 -0.4665
vn 0.6027 -0.3219 -0.7301
vn 0.5297 0.7301 -0.4317
vn 0.5713 -0.6630 -0.4839
vn 0.1694 -0.9767 -0.1316
vn 0.4563 0.8584 -0.2343
vn 0.6581 0.7305 -0.1823
vn 0.5325 -0.8301 -0.1654
vn 0.7496 -0.6527 -0.1102
vn 0.4992 0.8655 0.0404
vn 0.7679 -0.0284 -0.6399
vn 0.7170 -0.6664 0.2045
vn 0.5921 0.7354 0.3297
vn 0.6571 0.6244 0.4224
vn 0.8235 0.4682 0.3204
vn 0.3524 -0.9052 0.2377
vn 0.8336 0.2978 0.4652
vn 0.1590 -0.9755 0.1521
vn 0.7446 -0.3077 0.5924
vn 0.6120 -0.4784 0.6298
vn 0.6312 -0.6347 0.4458
vn 0.6147 0.5795 0.5351
vn 0.3772 -0.7912 0.4813
vn 0.5972 0.2514 0.7617
vn 0.4617 -0.1467 0.8748
vn 0.3395 0.6904 0.6388
vn 0.1582 -0.0270 -0.9870
vn 0.0713 0.8244 0.5615
vn 0.1049 0.4379 0.8929
vn -0.0178 0.4847 0.8745
vn -0.1745 0.3144 0.9331
vn 0.8002 -0.0229 0.5993
vn -0.1310 -0.1685 0.9769
vn -0.0359 -0.6553 0.7545
vn -0.0603 0.5736 0.8169
vn -0.2760 0.0016 0.9611
vn -0.9434 -0.0369 0.3295
vn -0.4631 -0.2002 0.8634
vn -0.2926 0.7391 0.6067
vn -0.2688 0.8656 0.4225
vn -0.3807 -0.7803 0.4962
vn -0.6172 0.0937 0.7812
vn -0.3088 -0.9162 0.2555
vn -0.8852 0.4582 -0.0809
vn -0.7321 -0.1169 0.6710
vn -0.7655 -0.5214 0.3771
vn -0.7795 0.4018 0.4805
vn -0.2112 -0.9627 0.1689
vn -0.4643 0.8439 0.2687
vn -0.3506 -0.0384 0.9357
vn -0.8835 -0.3494 0.3119
vn -0.7273 -0.6556 0.2029
vn -0.6838 0.7230 0.0984
vn -0.9969 0.0723 0.0312
vn 0.9990 -0.0241 -0.0374
vn -0.9899 -0.0729 0.1218
vn 0.2994 0.9512 0.0748
vn -0.1564 0.9263 0.3429
vn -0.3313 0.9379 -0.1029
vn 0.0356 0.9405 -0.3379
vn 0.2612 0.9412 -0.2142
usemtl None
s off
f 116//1 13//1 5//1
f 15//2 14//2 21//2 22//2
f 3//3 11//3 8//3
f 1//4 6//4 7//4
f 4//5 12//5 13//5
f 5//6 13//6 9//6
f 8//7 24//7 16//7
f 14//8 6//8 17//8
f 10//9 18//9 11//9
f 18//10 15//10 23//10
f 20//11 17//11 13//11 19//11
f 15//12 22//12 23//12
f 21//13 17//13 20//13
f 32//14 24//14 18//14 29//14
f 25//15 21//15 20//15 27//15
f 28//16 22//16 21//16 25//16
f 19//17 12//17 30//17 26//17
f 31//18 25//18 27//18 34//18
f 33//19 24//19 37//19
f 27//20 19//20 26//20
f 29//21 36//21 42//21
f 32//22 29//22 42//22
f 35//23 28//23 25//23 31//23
f 26//24 30//24 45//24 38//24
f 28//25 35//25 36//25
f 29//26 28//26 36//26
f 40//27 31//27 34//27 39//27
f 26//28 38//28 34//28
f 36//29 44//29 42//29
f 41//30 35//30 31//30 40//30
f 33//31 37//31 56//31
f 50//32 37//32 42//32 44//32
f 41//33 40//33 47//33
f 38//34 49//34 43//34
f 39//35 38//35 43//35
f 48//36 47//36 54//36 55//36
f 39//37 43//37 46//37
f 37//38 50//38 56//38
f 40//39 39//39 46//39
f 40//40 46//40 47//40
f 44//41 41//41 48//41
f 46//42 43//42 52//42 53//42
f 45//43 51//43 49//43
f 50//44 44//44 58//44
f 54//45 47//45 46//45 53//45
f 55//46 54//46 62//46 63//46
f 16//47 33//47 65//47
f 49//48 60//48 52//48
f 58//49 48//49 55//49
f 53//50 52//50 61//50 57//50
f 55//51 63//51 58//51
f 56//52 50//52 59//52 65//52
f 62//53 54//53 53//53 57//53
f 67//54 61//54 60//54 66//54
f 51//55 70//55 60//55
f 57//56 61//56 67//56 64//56
f 63//57 69//57 59//57
f 68//58 62//58 57//58 64//58
f 63//59 62//59 68//59 69//59
f 76//60 68//60 64//60 72//60
f 65//61 59//61 74//61
f 69//62 73//62 74//62
f 69//63 68//63 76//63 73//63
f 30//64 12//64 123//64 125//64
f 66//65 70//65 78//65 84//65
f 16//66 65//66 114//66
f 45//67 125//67 126//67
f 92//68 78//68 129//68 131//68
f 75//69 66//69 84//69
f 72//70 71//70 79//70
f 95//71 74//71 91//71
f 76//72 72//72 80//72
f 90//73 77//73 81//73 87//73
f 76//74 80//74 81//74
f 92//75 131//75 132//75
f 78//76 92//76 84//76
f 86//77 80//77 79//77 85//77
f 77//78 90//78 83//78
f 79//79 75//79 82//79
f 91//80 77//80 83//80
f 79//81 82//81 85//81
f 89//82 87//82 86//82 93//82
f 87//83 80//83 86//83
f 96//84 82//84 84//84 102//84
f 90//85 87//85 89//85
f 91//86 83//86 99//86 100//86
f 86//87 85//87 88//87
f 86//88 88//88 93//88
f 99//89 90//89 89//89 94//89
f 95//90 91//90 100//90
f 88//91 98//91 93//91
f 106//92 98//92 97//92 105//92
f 51//93 126//93 127//93
f 92//94 101//94 102//94
f 95//95 100//95 114//95
f 94//96 93//96 103//96
f 108//97 99//97 94//97 104//97
f 98//98 106//98 103//98
f 105//99 97//99 96//99 110//99
f 12//100 4//100 122//100 123//100
f 99//101 108//101 100//101
f 113//102 108//102 104//102 112//102
f 103//103 107//103 104//103
f 100//104 8//104 114//104
f 70//105 127//105 129//105
f 101//106 132//106 122//106
f 104//107 111//107 112//107
f 118//108 105//108 110//108 117//108
f 115//109 107//109 106//109 119//109
f 109//110 108//110 113//110
f 105//111 118//111 106//111
f 117//112 110//112 116//112
f 1//113 119//113 118//113 5//113
f 107//114 115//114 111//114
f 111//115 120//115 112//115
f 120//116 111//116 115//116
f 101//117 4//117 116//117
f 109//118 113//118 3//118
f 8//119 109//119 3//119
f 121//120 2//120 3//120
f 118//121 117//121 5//121
f 121//122 120//122 7//122 2//122
f 115//123 119//123 1//123
f 123//124 133//124 124//124 125//124
f 126//125 124//125 128//125 127//125
f 124//126 133//126 128//126
f 129//127 128//127 130//127 131//127
f 128//128 133//128 130//128
f 130//129 133//129 122//129
f 10//130 3//130 2//130
f 11//131 3//131 10//131
f 13//132 116//132 4//132
f 2//133 7//133 15//133
f 10//134 2//134 15//134
f 24//135 8//135 11//135
f 7//136 6//136 14//136
f 15//137 7//137 14//137
f 18//138 10//138 15//138
f 9//139 13//139 17//139
f 6//140 9//140 17//140
f 13//141 12//141 19//141
f 24//142 11//142 18//142
f 21//143 14//143 17//143
f 16//144 24//144 33//144
f 29//145 23//145 28//145
f 18//146 23//146 29//146
f 27//147 20//147 19//147
f 23//148 22//148 28//148
f 24//149 32//149 37//149
f 27//150 26//150 34//150
f 37//151 32//151 42//151
f 39//152 34//152 38//152
f 36//153 35//153 41//153
f 44//154 36//154 41//154
f 38//155 45//155 49//155
f 41//156 47//156 48//156
f 43//157 49//157 52//157
f 44//158 48//158 58//158
f 65//159 33//159 56//159
f 60//160 49//160 51//160
f 61//161 52//161 60//161
f 50//162 58//162 59//162
f 58//163 63//163 59//163
f 60//164 70//164 66//164
f 51//165 45//165 126//165
f 59//166 69//166 74//166
f 75//167 67//167 66//167
f 71//168 67//168 75//168
f 64//169 67//169 71//169
f 95//170 65//170 74//170
f 72//171 64//171 71//171
f 65//172 95//172 114//172
f 73//173 76//173 81//173
f 77//174 73//174 81//174
f 74//175 73//175 77//175
f 79//176 71//176 75//176
f 91//177 74//177 77//177
f 80//178 72//178 79//178
f 87//179 81//179 80//179
f 82//180 75//180 84//180
f 45//181 30//181 125//181
f 84//182 92//182 102//182
f 85//183 82//183 88//183
f 88//184 82//184 97//184
f 98//185 88//185 97//185
f 78//186 70//186 129//186
f 94//187 89//187 93//187
f 83//188 90//188 99//188
f 82//189 96//189 97//189
f 93//190 98//190 103//190
f 4//191 101//191 122//191
f 104//192 94//192 103//192
f 110//193 96//193 102//193
f 102//194 101//194 110//194
f 100//195 108//195 109//195
f 103//196 106//196 107//196
f 100//197 109//197 8//197
f 1//198 5//198 9//198 6//198
f 104//199 107//199 111//199
f 121//200 113//200 112//200
f 106//201 118//201 119//201
f 114//202 8//202 16//202
f 116//203 110//203 101//203
f 101//204 92//204 132//204
f 112//205 120//205 121//205
f 113//206 121//206 3//206
f 5//207 117//207 116//207
f 7//208 115//208 1//208
f 70//209 51//209 127//209
f 120//210 115//210 7//210
f 123//211 122//211 133//211
f 125//212 124//212 126//212
f 127//213 128//213 129//213
f 131//214 130//214 132//214
f 132//215 130//215 122//215
